<svg xmlns="http://www.w3.org/2000/svg" viewBox="0 0 410 404" fill="none">
  <path d="M399.641 59.524 215.643 388.545a22.76 22.76 0 0 1-39.565.179L10.117 59.38a22.76 22.76 0 0 1 24.962-32.97l184.214 32.946a22.76 22.76 0 0 0 8.031 0l147.59-26.39a22.76 22.76 0 0 1 24.727 26.558Z" fill="url(#a)"/>
  <path d="M292.965 1.574 156.907 28.533a11.38 11.38 0 0 0-9.141 9.566l-8.373 141.312a11.38 11.38 0 0 0 13.828 11.806l37.887-8.733a11.38 11.38 0 0 1 13.675 13.875l-11.252 55.11a11.38 11.38 0 0 0 14.018 13.488l23.406-6.988a11.38 11.38 0 0 1 14.44 13.417l-17.885 86.57c-1.118 5.406 6.073 8.354 9.08 3.726L238.6 361.67 349.46 140.36c1.855-3.705-1.347-7.901-5.412-7.174l-38.973 6.731a11.38 11.38 0 0 1-13.106-14.638l25.432-88.153a11.38 11.38 0 0 0-24.436-10.552Z" fill="url(#b)"/>
  <defs>
    <linearGradient id="a" x1="6" y1="32" x2="235" y2="344" gradientUnits="userSpaceOnUse">
      <stop stop-color="#41D1FF"/>
      <stop offset="1" stop-color="#BD34FE"/>
    </linearGradient>
    <linearGradient id="b" x1="194.651" y1="8.818" x2="236.076" y2="292.989" gradientUnits="userSpaceOnUse">
      <stop stop-color="#FFEA83"/>
      <stop offset=".083" stop-color="#FFDD35"/>
      <stop offset="1" stop-color="#FFA800"/>
    </linearGradient>
  </defs>
</svg>
